<svg width="572" height="593" viewBox="0 0 572 593" fill="none" xmlns="http://www.w3.org/2000/svg">
<path opacity="0.2" d="M275.637 681.09C356.103 646.353 426.646 589.129 460.256 508.177C493.393 428.365 485.736 338.041 450.94 258.916C417.473 182.799 353.642 126.753 277.668 92.9691C200.915 58.8481 115.45 47.3724 35.9274 74.4206C-47.5514 102.808 -118.941 161.011 -156.633 240.716C-195.492 322.929 -198.302 417.697 -166.664 502.947C-134.341 590.001 -71.9945 666.061 14.1526 700.759C98.4341 734.708 192.228 717.102 275.637 681.09Z" fill="#F1F8FF"/>
<path opacity="0.2" d="M255.637 681.09C336.103 646.353 406.646 589.129 440.256 508.177C473.393 428.365 465.736 338.041 430.94 258.916C397.473 182.799 333.642 126.753 257.668 92.9691C180.915 58.8481 95.45 47.3724 15.9274 74.4206C-67.5514 102.808 -138.941 161.011 -176.633 240.716C-215.492 322.929 -218.302 417.697 -186.664 502.947C-154.341 590.001 -91.9945 666.061 -5.84739 700.759C78.4341 734.708 172.228 717.102 255.637 681.09Z" fill="#F1F8FF"/>
<path opacity="0.2" d="M215.637 681.09C296.103 646.353 366.646 589.129 400.256 508.177C433.393 428.365 425.736 338.041 390.94 258.916C357.473 182.799 293.642 126.753 217.668 92.9691C140.915 58.8481 55.45 47.3724 -24.0726 74.4206C-107.551 102.808 -178.941 161.011 -216.633 240.716C-255.492 322.929 -258.302 417.697 -226.664 502.947C-194.341 590.001 -131.995 666.061 -45.8474 700.759C38.4341 734.708 132.228 717.102 215.637 681.09Z" fill="#F1F8FF"/>
<path opacity="0.2" d="M175.637 681.09C256.103 646.353 326.646 589.129 360.256 508.177C393.393 428.365 385.736 338.041 350.94 258.916C317.473 182.799 253.642 126.753 177.668 92.9691C100.915 58.8481 15.45 47.3724 -64.0726 74.4206C-147.551 102.808 -218.941 161.011 -256.633 240.716C-295.492 322.929 -298.302 417.697 -266.664 502.947C-234.341 590.001 -171.995 666.061 -85.8474 700.759C-1.56587 734.708 92.2282 717.102 175.637 681.09Z" fill="#F1F8FF"/>
<path opacity="0.2" d="M135.637 681.09C216.103 646.353 286.646 589.129 320.256 508.177C353.393 428.365 345.736 338.041 310.94 258.916C277.473 182.799 213.642 126.753 137.668 92.9691C60.9155 58.8481 -24.55 47.3724 -104.073 74.4206C-187.551 102.808 -258.941 161.011 -296.633 240.716C-335.492 322.929 -338.302 417.697 -306.664 502.947C-274.341 590.001 -211.995 666.061 -125.847 700.759C-41.5659 734.708 52.2282 717.102 135.637 681.09Z" fill="#F1F8FF"/>
<path opacity="0.2" d="M95.6375 681.09C176.103 646.353 246.646 589.129 280.256 508.177C313.393 428.365 305.736 338.041 270.94 258.916C237.473 182.799 173.642 126.753 97.6678 92.9691C20.9155 58.8481 -64.55 47.3724 -144.073 74.4206C-227.551 102.808 -298.941 161.011 -336.633 240.716C-375.492 322.929 -378.302 417.697 -346.664 502.947C-314.341 590.001 -251.995 666.061 -165.847 700.759C-81.5659 734.708 12.2282 717.102 95.6375 681.09Z" fill="#F1F8FF"/>
<path opacity="0.2" d="M55.6375 681.09C136.103 646.353 206.646 589.129 240.256 508.177C273.393 428.365 265.736 338.041 230.94 258.916C197.473 182.799 133.642 126.753 57.6678 92.9691C-19.0845 58.8481 -104.55 47.3724 -184.073 74.4206C-267.551 102.808 -338.941 161.011 -376.633 240.716C-415.492 322.929 -418.302 417.697 -386.664 502.947C-354.341 590.001 -291.995 666.061 -205.847 700.759C-121.566 734.708 -27.7718 717.102 55.6375 681.09Z" fill="#F1F8FF"/>
<path opacity="0.2" d="M15.6375 681.09C96.1026 646.353 166.646 589.129 200.256 508.177C233.393 428.365 225.736 338.041 190.94 258.916C157.473 182.799 93.6422 126.753 17.6678 92.9691C-59.0845 58.8481 -144.55 47.3724 -224.073 74.4206C-307.551 102.808 -378.941 161.011 -416.633 240.716C-455.492 322.929 -458.302 417.697 -426.664 502.947C-394.341 590.001 -331.995 666.061 -245.847 700.759C-161.566 734.708 -67.7718 717.102 15.6375 681.09Z" fill="#F1F8FF"/>
<path opacity="0.2" d="M-24.3625 681.09C56.1026 646.353 126.646 589.129 160.256 508.177C193.393 428.365 185.736 338.041 150.94 258.916C117.473 182.799 53.6422 126.753 -22.3322 92.9691C-99.0845 58.8481 -184.55 47.3724 -264.073 74.4206C-347.551 102.808 -418.941 161.011 -456.633 240.716C-495.492 322.929 -498.302 417.697 -466.664 502.947C-434.341 590.001 -371.995 666.061 -285.847 700.759C-201.566 734.708 -107.772 717.102 -24.3625 681.09Z" fill="#F1F8FF"/>
<path opacity="0.2" d="M-64.3625 681.09C16.1026 646.353 86.6456 589.129 120.256 508.177C153.393 428.365 145.736 338.041 110.94 258.916C77.4726 182.799 13.6422 126.753 -62.3322 92.9691C-139.085 58.8481 -224.55 47.3724 -304.073 74.4206C-387.551 102.808 -458.941 161.011 -496.633 240.716C-535.492 322.929 -538.302 417.697 -506.664 502.947C-474.341 590.001 -411.995 666.061 -325.847 700.759C-241.566 734.708 -147.772 717.102 -64.3625 681.09Z" fill="#F1F8FF"/>
<path opacity="0.2" d="M-104.363 681.09C-23.8974 646.353 46.6456 589.129 80.2565 508.177C113.393 428.365 105.736 338.041 70.9403 258.916C37.4726 182.799 -26.3578 126.753 -102.332 92.9691C-179.085 58.8481 -264.55 47.3724 -344.073 74.4206C-427.551 102.808 -498.941 161.011 -536.633 240.716C-575.492 322.929 -578.302 417.697 -546.664 502.947C-514.341 590.001 -451.995 666.061 -365.847 700.759C-281.566 734.708 -187.772 717.102 -104.363 681.09Z" fill="#F1F8FF"/>
<path opacity="0.2" d="M-144.363 681.09C-63.8974 646.353 6.64557 589.129 40.2565 508.177C73.393 428.365 65.7365 338.041 30.9403 258.916C-2.52742 182.799 -66.3578 126.753 -142.332 92.9691C-219.085 58.8481 -304.55 47.3724 -384.073 74.4206C-467.551 102.808 -538.941 161.011 -576.633 240.716C-615.492 322.929 -618.302 417.697 -586.664 502.947C-554.341 590.001 -491.995 666.061 -405.847 700.759C-321.566 734.708 -227.772 717.102 -144.363 681.09Z" fill="#F1F8FF"/>
<path opacity="0.2" d="M-184.363 681.09C-103.897 646.353 -33.3544 589.129 0.256452 508.177C33.393 428.365 25.7365 338.041 -9.05967 258.916C-42.5274 182.799 -106.358 126.753 -182.332 92.9691C-259.085 58.8481 -344.55 47.3724 -424.073 74.4206C-507.551 102.808 -578.941 161.011 -616.633 240.716C-655.492 322.929 -658.302 417.697 -626.664 502.947C-594.341 590.001 -531.995 666.061 -445.847 700.759C-361.566 734.708 -267.772 717.102 -184.363 681.09Z" fill="#F1F8FF"/>
<path opacity="0.2" d="M-224.363 681.09C-143.897 646.353 -73.3544 589.129 -39.7435 508.177C-6.60705 428.365 -14.2635 338.041 -49.0597 258.916C-82.5274 182.799 -146.358 126.753 -222.332 92.9691C-299.085 58.8481 -384.55 47.3724 -464.073 74.4206C-547.551 102.808 -618.941 161.011 -656.633 240.716C-695.492 322.929 -698.302 417.697 -666.664 502.947C-634.341 590.001 -571.995 666.061 -485.847 700.759C-401.566 734.708 -307.772 717.102 -224.363 681.09Z" fill="#F1F8FF"/>
</svg>
