<svg width="41" height="86" viewBox="0 0 41 86" fill="none" xmlns="http://www.w3.org/2000/svg">
<path d="M25.5 35C25.5 32.2386 23.2614 30 20.5 30C17.7386 30 15.5 32.2386 15.5 35C15.5 37.7614 17.7386 40 20.5 40C23.2614 40 25.5 37.7614 25.5 35Z" fill="white" stroke="#EEF5F8" stroke-width="2"/>
<path d="M21.5 35C21.5 34.4477 21.0523 34 20.5 34C19.9477 34 19.5 34.4477 19.5 35C19.5 35.5523 19.9477 36 20.5 36C21.0523 36 21.5 35.5523 21.5 35Z" fill="white" stroke="#EEF5F8" stroke-width="2"/>
<path d="M39 65.5C39 55.2827 30.7173 47 20.5 47C10.2827 47 2 55.2827 2 65.5C2 75.7173 10.2827 84 20.5 84C30.7173 84 39 75.7173 39 65.5Z" stroke="#EEF5F8" stroke-width="4"/>
<path d="M25.8291 68.5312L25.5283 68.1875C25.3135 68.0156 25.0127 68.0156 24.7979 68.1875L21.2314 71.7969V55.6406C21.2314 55.3828 20.9737 55.125 20.7158 55.125H20.2862C19.9854 55.125 19.7705 55.3828 19.7705 55.6406V71.7969L16.1612 68.1875C15.9463 68.0156 15.6455 68.0156 15.4307 68.1875L15.1299 68.5312C14.915 68.7031 14.915 69.0469 15.1299 69.2188L20.1143 74.2461C20.3291 74.4609 20.6298 74.4609 20.8447 74.2461L25.8291 69.2188C26.044 69.0469 26.044 68.7031 25.8291 68.5312Z" fill="white"/>
</svg>
